<?xml version="1.0" encoding="utf-8"?>
<!-- Generator: Adobe Illustrator 19.2.1, SVG Export Plug-In . SVG Version: 6.00 Build 0)  -->
<svg version="1.1" xmlns="http://www.w3.org/2000/svg" xmlns:xlink="http://www.w3.org/1999/xlink" x="0px" y="0px"
	 viewBox="0 0 512 512" style="enable-background:new 0 0 512 512;" xml:space="preserve">
<style type="text/css">
	.st0{fill:#298063;}
	.st1{fill:#87B7DD;}
	.st2{fill:#1F3049;}
	.st3{fill:#C93A3A;}
	.st4{fill:#CA6A46;}
	.st5{fill:#5082A9;}
	.st6{fill:#D5872A;}
	.st7{fill:#57646E;}
	.st8{fill:#75A897;}
	.st9{fill:#DA8B80;}
	.st10{fill:#E6CA56;}
	.st11{fill:#B9BDC2;}
	.st12{fill:#E4C856;}
	.st13{fill:#733D28;}
	.st14{clip-path:url(#SVGID_2_);}
	.st15{fill:#D17F73;}
	.st16{fill:#E6A585;}
	.st17{fill:#FFFFFF;}
	.st18{fill:#4E3333;}
	.st19{clip-path:url(#SVGID_4_);}
	.st20{fill:#FFB6AB;}
	.st21{clip-path:url(#SVGID_6_);}
	.st22{clip-path:url(#SVGID_8_);}
	.st23{clip-path:url(#SVGID_10_);}
	.st24{fill:#F09162;}
	.st25{clip-path:url(#SVGID_12_);}
	.st26{clip-path:url(#SVGID_14_);}
	.st27{clip-path:url(#SVGID_16_);}
	.st28{clip-path:url(#SVGID_18_);}
	.st29{clip-path:url(#SVGID_20_);}
	.st30{clip-path:url(#SVGID_22_);}
	.st31{fill:#572020;}
	.st32{clip-path:url(#SVGID_24_);}
	.st33{clip-path:url(#SVGID_26_);}
	.st34{clip-path:url(#SVGID_28_);}
	.st35{fill:#A34B2A;}
	.st36{clip-path:url(#SVGID_30_);}
	.st37{clip-path:url(#SVGID_32_);}
	.st38{clip-path:url(#SVGID_34_);}
	.st39{clip-path:url(#SVGID_36_);}
	.st40{fill:#E09C6F;}
	.st41{clip-path:url(#SVGID_38_);}
	.st42{clip-path:url(#SVGID_40_);}
	.st43{clip-path:url(#SVGID_42_);}
	.st44{clip-path:url(#SVGID_44_);}
	.st45{clip-path:url(#SVGID_46_);}
	.st46{clip-path:url(#SVGID_48_);}
	.st47{clip-path:url(#SVGID_50_);}
	.st48{clip-path:url(#SVGID_52_);}
	.st49{clip-path:url(#SVGID_54_);}
	.st50{clip-path:url(#SVGID_56_);}
	.st51{clip-path:url(#SVGID_58_);}
	.st52{clip-path:url(#SVGID_60_);}
	.st53{clip-path:url(#SVGID_62_);}
	.st54{clip-path:url(#SVGID_64_);fill:#75A897;}
	.st55{clip-path:url(#SVGID_64_);fill:#A34B2A;}
	.st56{clip-path:url(#SVGID_64_);}
	.st57{clip-path:url(#SVGID_64_);fill:#1F3049;}
	.st58{clip-path:url(#SVGID_66_);}
	.st59{clip-path:url(#SVGID_68_);}
	.st60{clip-path:url(#SVGID_70_);}
	.st61{clip-path:url(#SVGID_72_);}
	.st62{clip-path:url(#SVGID_74_);}
	.st63{clip-path:url(#SVGID_76_);}
	.st64{clip-path:url(#SVGID_78_);}
	.st65{clip-path:url(#SVGID_80_);}
	.st66{clip-path:url(#SVGID_82_);}
	.st67{clip-path:url(#SVGID_84_);}
	.st68{clip-path:url(#SVGID_86_);}
	.st69{clip-path:url(#SVGID_88_);}
	.st70{clip-path:url(#SVGID_90_);}
	.st71{clip-path:url(#SVGID_92_);}
	.st72{clip-path:url(#SVGID_94_);}
	.st73{clip-path:url(#SVGID_96_);}
	.st74{clip-path:url(#SVGID_98_);}
	.st75{clip-path:url(#SVGID_98_);fill:none;}
	.st76{clip-path:url(#SVGID_100_);}
</style>
<g id="ICON">
	<ellipse class="st0" cx="256.3" cy="254.4" rx="252.9" ry="254.9"/>
</g>
<g id="Layer_6">
	<g>
		<defs>
			<ellipse id="SVGID_1_" cx="256.2" cy="253.3" rx="252.9" ry="254.9"/>
		</defs>
		<clipPath id="SVGID_2_">
			<use xlink:href="#SVGID_1_"  style="overflow:visible;"/>
		</clipPath>
		<g class="st14">
			<g>
				<path class="st15" d="M177.9,211.7c7.7,22.5,3.5,44.3-9.4,48.8c-12.9,4.5-29.5-10.1-37.2-32.6c-7.7-22.5-3.5-44.3,9.4-48.8
					C153.6,174.6,170.2,189.2,177.9,211.7z"/>
				<path class="st15" d="M334.6,211.7c-7.7,22.5-3.5,44.3,9.4,48.8c12.9,4.5,29.5-10.1,37.2-32.6c7.7-22.5,3.5-44.3-9.4-48.8
					C358.9,174.6,342.3,189.2,334.6,211.7z"/>
			</g>
			<path class="st6" d="M514.7,588.3l-0.1-1.2c0-71.9-26.7-141.6-59.3-154.9l-138.8-56.4c-32.6-13.3-86-13.3-118.6-0.2L57.2,432.4
				C24.6,445.5-2.1,515.2-2.1,587.1l-0.1,1.2H514.7z"/>
			<rect x="194.8" y="317.8" class="st15" width="122.8" height="82"/>
			<g>
				<path class="st16" d="M361.2,233.5c0,60.4-47,109.2-105,109.2l0,0c-58,0-105-48.8-105-109.2v-62.9c0-60.3,47-109.2,105-109.2
					l0,0c58,0,105,48.9,105,109.2V233.5z"/>
			</g>
			<g>
				<polygon class="st2" points="214.5,440.9 155,402 173.6,358.8 256.2,382.9 				"/>
				<g>
					<polygon class="st2" points="298,440.9 357.5,402 338.9,358.8 256.3,382.9 					"/>
				</g>
			</g>
			<g>
				<g>
					<polygon class="st13" points="156,220.5 142.1,220.5 142.1,128.7 170.7,113.8 					"/>
					<path class="st13" d="M324.3,49.7h-64.5h-7h-64.5c-25.5,0-46.1,20.8-46.1,46.5v41.9v30.2c12.4-33.2,24.7-47,50.9-50.9
						c4.7,15.6,31.1,27.6,63.2,27.6c32,0,58.5-12,63.2-27.6c26.3,3.9,38.5,17.7,51,50.9v-30.2V96.2
						C370.4,70.5,349.7,49.7,324.3,49.7z"/>
				</g>
				<polygon class="st13" points="370.4,220.5 356.6,220.5 341.8,113.8 370.4,128.7 				"/>
			</g>
			<g>
				<ellipse class="st2" cx="219.9" cy="209.5" rx="11" ry="11.1"/>
				<ellipse class="st2" cx="292.6" cy="209.5" rx="11" ry="11.1"/>
			</g>
			<g>
				<path class="st2" d="M216.1,260.2c0.7,25.7,18.4,46.3,40.2,46.3c21.8,0,39.5-20.6,40.2-46.3c-11.2,6-25.1,9.6-40.2,9.6
					C241.2,269.7,227.3,266.2,216.1,260.2z"/>
				<path class="st17" d="M233.7,284.5h45c3.8,0,6.9-3.1,6.9-7v-12.8c-8.9,3.1-18.9,4.9-29.4,4.9c-10.6,0-20.6-1.8-29.4-4.9v12.8
					C226.8,281.4,229.9,284.5,233.7,284.5z"/>
			</g>
			<g>
				<g>
					<path class="st18" d="M195.7,191.3c11.2-2.3,22.3-4.7,33.5-7c8.7-1.8,5-15.3-3.7-13.5c-11.2,2.3-22.3,4.7-33.5,7
						C183.3,179.6,187,193.1,195.7,191.3L195.7,191.3z"/>
				</g>
				<g>
					<path class="st18" d="M320.4,177.8c-11.2-2.3-22.3-4.7-33.5-7c-8.7-1.8-12.4,11.6-3.7,13.5c11.2,2.3,22.3,4.7,33.5,7
						C325.5,193.1,329.2,179.6,320.4,177.8L320.4,177.8z"/>
				</g>
			</g>
		</g>
	</g>
</g>
</svg>
