<svg width="25" height="25" viewBox="0 0 25 25" fill="none" xmlns="http://www.w3.org/2000/svg">
<path fill-rule="evenodd" clip-rule="evenodd" d="M4.10688 24.0473L0 19.9404L0.113137 19.8273C0.950352 20.2119 1.81019 19.963 2.69266 19.0806L9.72595 12.0473L2.75225 5.07359C1.85847 4.17981 0.998627 3.93091 0.172726 4.32689L0.0595891 4.21375L4.16647 0.106876L4.2796 0.220013C3.88362 1.04591 4.13253 1.90576 5.02631 2.79954L12 9.77323L19.0806 2.69266C19.9744 1.79888 20.2233 0.939038 19.8273 0.113137L19.9404 0L24.0473 4.10688L23.9342 4.22001C23.1083 3.82403 22.2484 4.07294 21.3546 4.96672L14.2741 12.0473L21.4142 19.1874C22.2967 20.0699 23.1565 20.3188 23.9937 19.9342L24.1069 20.0473L20 24.1542L19.8869 24.041C20.2715 23.2038 20.0226 22.344 19.1402 21.4615L12 14.3213L4.96672 21.3546C4.08425 22.2371 3.83535 23.0969 4.22001 23.9342L4.10688 24.0473Z" fill="#A0720D"/>
</svg>
